# Blender v3.5.0 OBJ File: ''
# www.blender.org
o Grass_Block_Cube
v -1.000000 0.000003 1.000000
v -1.000000 0.000003 -1.000000
v 1.000000 0.000003 -1.000000
v 1.000000 0.000003 1.000000
v -1.000000 2.000003 0.999999
v 1.000000 2.000003 1.000000
v 1.000000 2.000003 -1.000000
v -0.999999 2.000003 -1.000001
vt 0.333587 0.250594
vt 0.666413 0.000975
vt 0.666413 0.250594
vt 0.666413 0.500213
vt 0.333587 0.749833
vt 0.333587 0.500214
vt 0.000761 0.749833
vt 0.000761 0.500214
vt 0.666413 0.999452
vt 0.333587 0.999452
vt 0.999239 0.500213
vt 0.666413 0.749833
vt 0.333587 0.000975
vt 0.999239 0.749833
vn 0.0000 -1.0000 -0.0000
vn 0.0000 1.0000 0.0000
vn -1.0000 0.0000 -0.0000
vn 0.0000 -0.0000 -1.0000
vn 1.0000 -0.0000 0.0000
vn -0.0000 0.0000 1.0000
s 1
f 2/1/1 4/2/1 1/3/1
f 5/4/2 7/5/2 8/6/2
f 5/4/3 2/1/3 1/3/3
f 8/6/4 3/7/4 2/8/4
f 7/5/5 4/9/5 3/10/5
f 1/11/6 6/12/6 5/4/6
f 2/1/1 3/13/1 4/2/1
f 5/4/2 6/12/2 7/5/2
f 5/4/3 8/6/3 2/1/3
f 8/6/4 7/5/4 3/7/4
f 7/5/5 6/12/5 4/9/5
f 1/11/6 4/14/6 6/12/6
